<?xml version="1.0" standalone="no"?>
<!DOCTYPE svg PUBLIC "-//W3C//DTD SVG 20010904//EN"
 "http://www.w3.org/TR/2001/REC-SVG-20010904/DTD/svg10.dtd">
<svg version="1.0" xmlns="http://www.w3.org/2000/svg"
 width="163.000000pt" height="163.000000pt" viewBox="0 0 163.000000 163.000000"
 preserveAspectRatio="xMidYMid meet">
<metadata>
Created by potrace 1.11, written by Peter Selinger 2001-2013
</metadata>
<g transform="translate(0.000000,163.000000) scale(0.100000,-0.100000)"
fill="#000000" stroke="none">
<path d="M122 1623 c-37 -7 -99 -73 -111 -120 -8 -30 -11 -235 -9 -710 3 -746
-1 -702 75 -760 l36 -28 337 -3 336 -3 47 98 46 98 -336 3 c-186 1 -339 6
-342 11 -5 7 -6 1181 -2 1214 1 4 118 7 260 7 l260 0 45 95 c26 53 46 98 46
100 0 6 -657 4 -688 -2z"/>
<path d="M885 1540 c-25 -49 -45 -94 -45 -100 0 -6 105 -11 293 -12 l292 -3 0
-610 0 -610 -215 -3 -216 -2 -47 -95 c-26 -53 -47 -98 -47 -101 0 -3 139 -4
308 -2 l309 3 36 28 c76 58 72 14 75 760 2 472 -1 679 -9 709 -14 52 -63 103
-114 117 -25 7 -144 11 -307 11 l-268 0 -45 -90z"/>
<path d="M405 1206 c-3 -10 0 -722 3 -758 4 -37 39 -42 280 -43 l233 0 -3 100
-3 100 -153 0 c-128 -1 -153 2 -156 15 -2 8 -3 143 -2 298 0 156 -1 287 -4
291 -8 12 -191 9 -195 -3z"/>
<path d="M709 1216 c-1 -1 -2 -45 -3 -98 -2 -82 1 -98 14 -99 8 -1 78 -2 155
-3 l140 -1 5 -305 5 -305 95 0 95 0 3 383 2 383 -23 23 c-23 23 -26 23 -255
23 -128 0 -233 -1 -233 -1z"/>
</g>
</svg>
