<svg width="76" height="76" viewBox="0 0 76 76" fill="none" xmlns="http://www.w3.org/2000/svg">
<g clip-path="url(#clip0)">
<path d="M68.004 12.5963C68.1266 15.2143 66.051 16.8309 64.4771 18.3672L48.3511 31.9116C46.8997 33.2607 44.8088 34.3729 43.9931 36.3908C42.9247 39.066 42.5265 42.0203 42.0784 44.9669C41.818 47.0918 39.8305 48.9377 37.9809 49.7173C36.5448 50.218 34.8177 49.981 33.2476 50.0995L27.6259 50.1377C27.3962 50.1839 27.178 50.2753 26.9841 50.4066C26.7901 50.5378 26.6243 50.7062 26.4962 50.9021L26.2856 51.4448C25.6844 51.5327 25.9027 51.0091 25.7993 50.6422C25.7993 49.4078 26.0903 48.1198 27.0017 47.3899C27.4881 46.8969 28.1735 46.7784 28.8552 46.6676L37.0503 46.5491C37.4793 46.4957 37.881 46.31 38.1991 46.0178L38.5285 45.3834C39.1833 41.3056 39.5624 37.0863 41.5921 33.6238C43.4762 31.4263 45.8543 29.9128 47.9528 27.979C52.8201 23.8591 57.8597 19.6666 62.6657 15.4856C64.0252 14.2015 65.4651 12.5084 65.7982 10.4753L65.9782 9.93256C66.5432 10.1328 67.0379 10.492 67.4029 10.9667C67.7678 11.4414 67.9872 12.0114 68.0347 12.6078" fill="#231F20"/>
<path d="M72.7336 17.1942C72.9749 19.7357 70.9759 20.9434 69.3828 22.5141L62.8038 28.1551L51.1085 38.065C49.4504 39.9338 49.3661 42.5785 48.941 44.9671C49.01 45.7315 49.7988 46.0639 49.6457 46.878L48.0181 49.8017C48.1062 50.9673 49.5499 50.2908 49.9941 51.0208C49.9941 51.4412 49.7299 51.9648 50.0592 52.3126C50.289 52.6947 51.2081 52.175 50.7371 52.817C50.603 52.9241 50.6528 53.1992 50.6911 53.3215C50.8864 53.5776 51.2502 53.6005 51.2847 53.9827C51.1865 54.24 51.1459 54.5157 51.1658 54.7903C51.1856 55.065 51.2654 55.3319 51.3996 55.5725C53.4292 57.7815 56.9217 55.0451 59.0394 57.1013C59.5717 57.5713 59.5564 58.4465 59.4223 59.1077C58.2926 62.4135 51.6064 62.6543 53.8964 67.3436C54.1178 67.7311 54.4328 68.0571 54.8127 68.292C55.1926 68.527 55.6253 68.6634 56.0715 68.6889C56.8374 68.8112 57.4042 68.494 58.0284 68.3067C58.2237 68.3067 58.239 68.4978 58.3194 68.6048V68.7424C56.4047 70.1144 53.8964 72.1323 51.3268 70.6533C50.6805 70.2045 50.1816 69.575 49.8927 68.844C49.6038 68.1131 49.5379 67.3132 49.7031 66.5449C50.4881 63.9499 53.479 63.2887 54.9725 61.1103C55.1347 60.7819 55.2119 60.4183 55.1972 60.0525C55.1825 59.6866 55.0763 59.3303 54.8882 59.016C54.4095 58.1637 53.3067 57.9382 52.3378 57.7624C50.7332 57.728 48.2709 58.7408 47.5586 56.8567C47.348 56.142 48.0794 54.8732 46.9306 54.7088C46.7735 54.5063 46.4059 54.3266 46.5974 54.0018C46.651 53.8107 46.9803 53.7878 46.8118 53.5432C46.5821 53.4782 46.2795 53.5432 46.0957 53.3368C45.4409 52.626 47.2446 51.854 46.023 51.3686C45.4064 51.2845 44.5678 51.7508 44.1695 51.0361C43.978 50.3787 44.4682 49.9087 44.7133 49.3698C45.1269 48.4487 46.3332 47.8411 46.023 46.6449L45.4332 45.6588C45.6078 43.3343 46.0001 41.0312 46.605 38.7796C47.4092 36.3069 49.7988 34.9273 51.6293 33.2266L61.4405 24.9486L68.3872 18.8337C69.5896 17.7178 70.6389 16.4642 70.6006 14.775C70.9836 14.6489 71.2133 15.0922 71.535 15.2298C72.1094 15.891 72.6073 16.3763 72.749 17.1942" fill="#231F20"/>
<path d="M70.0987 29.5307C68.8082 31.5868 66.6522 33.1347 64.7375 34.7589L57.1934 41.0687C55.8109 42.3184 55.4433 44.4816 56.0752 46.167C56.1441 47.0192 55.4816 47.5619 55.2748 48.311C55.2978 48.5326 55.3399 48.8193 55.5697 48.8842C55.8837 49.0065 56.3585 48.846 56.5347 49.2664C56.5807 49.7098 56.3777 50.1798 56.864 50.3518C57.0593 50.4588 57.3466 50.1225 57.3657 50.4741C57.2339 50.6552 57.1726 50.878 57.1934 51.1009C57.4423 51.5366 57.9593 51.2958 58.2005 51.6589C58.2963 52.1672 58.2963 52.8245 58.8707 53.0347C60.8276 53.3634 62.3172 52.041 64.075 51.6589C66.8667 50.7875 69.5703 51.8805 72.0633 52.6181C73.3433 52.8035 74.6434 52.8035 75.9234 52.6181L76.0115 52.7022C74.4222 54.636 72.4692 56.524 69.689 56.3253C66.7747 56.2183 64.8945 53.5048 61.7696 54.0322C59.6557 54.4526 57.5572 55.7214 55.2595 54.8692C54.9656 54.6082 54.7531 54.2685 54.6472 53.8904C54.5413 53.5123 54.5464 53.1118 54.6621 52.7366C54.5549 52.236 53.3409 52.1137 54.0953 51.4525C53.8617 51.2996 53.4673 51.4525 53.3294 51.1047C53.1916 50.7569 53.6434 50.111 53.115 49.8473C52.6478 49.7785 52.0389 50.0384 51.6866 49.6448C51.6075 49.5146 51.5589 49.3683 51.5443 49.2168C51.5297 49.0653 51.5496 48.9124 51.6023 48.7696C51.9355 47.9708 52.8431 47.3402 52.6478 46.3848C52.0389 45.8115 52.2418 44.8561 52.3146 44.0497C52.6631 42.2038 52.8048 40.2508 54.5242 39.0279L63.8146 31.2008C65.7676 29.3396 68.184 28.1434 69.5971 25.6822C70.3247 26.6873 70.6732 28.3154 70.0987 29.5307Z" fill="#231F20"/>
<path d="M41.7375 56.9143C44.3722 58.0264 47.1332 59.1309 49.4807 60.6787C49.809 60.9063 50.0733 61.2141 50.2483 61.5728C50.4233 61.9315 50.5032 62.3289 50.4802 62.7272C49.676 66.056 45.0347 66.4076 45.7163 70.3325C45.798 71.0509 46.0873 71.73 46.549 72.2872C47.0107 72.8443 47.6249 73.2554 48.3166 73.4702C49.0255 73.6582 49.7713 73.6582 50.4802 73.4702C50.5874 73.7263 51.0393 73.9709 50.53 74.1429C48.6153 75.3544 46.1874 76.7226 43.8667 75.5569C42.7178 75.0333 42.063 73.8104 41.7681 72.6333C41.2971 69.0752 44.6173 67.9554 46.2946 65.5744C46.567 65.0932 46.658 64.5307 46.5512 63.9884C46.232 63.3669 45.733 62.8556 45.1189 62.5208C38.8692 59.0277 32.0795 56.6658 25.1022 54.8772C23.9534 54.7664 22.1497 54.09 21.3799 55.4352V55.4964C20.7557 55.6301 20.997 54.8772 20.997 54.5448C21.0755 53.9977 21.2925 53.4796 21.6275 53.0395C21.9626 52.5995 22.4046 52.252 22.9117 52.03C24.7269 51.495 26.6455 52.137 28.4071 52.4504C32.9332 53.6781 37.382 55.1738 41.7298 56.9295" fill="#231F20"/>
<path d="M40.2404 71.4676C39.6775 71.5134 39.6583 71.5287 39.6392 71.6739C39.62 71.8192 39.6392 72.2625 39.6392 73.0612C39.6392 73.86 39.666 74.2651 39.689 74.4447C39.7119 74.6243 39.7387 74.6014 40.2978 74.6282V74.8575L38.5286 74.8919C38.2764 74.926 38.0197 74.9036 37.7772 74.8263C37.5348 74.7489 37.3126 74.6186 37.127 74.4447C36.9518 74.2774 36.8136 74.0754 36.7213 73.8516C36.6289 73.6278 36.5845 73.3873 36.5909 73.1453C36.5909 72.2396 37.1232 71.3262 38.5325 71.2994L40.2213 71.265L40.2404 71.4676ZM39.015 71.7466C39.015 71.544 38.9767 71.5287 38.632 71.5287C37.6402 71.5478 37.2381 72.0141 37.2649 73.1262C37.2917 74.2384 37.7091 74.6817 38.6971 74.6549C39.0303 74.6549 39.0801 74.6243 39.0801 74.5212L39.015 71.7466Z" fill="#231F20"/>
<path d="M36.2768 71.5212C35.7904 71.5212 35.7674 71.5212 35.7368 71.674C35.7062 71.8269 35.6602 72.255 35.5989 73.0614C35.5377 73.8678 35.4955 74.2538 35.5032 74.4334C35.5109 74.613 35.53 74.5939 36.0049 74.6703V74.8882L34.0671 74.7238C33.7983 74.7008 33.528 74.7008 33.2591 74.7238C33.2788 74.3942 33.2788 74.0636 33.2591 73.734L33.4851 73.7149C33.5693 74.3952 33.6727 74.4792 34.3926 74.5327L34.856 74.571C34.9135 74.571 34.9479 74.5518 34.9556 74.4792L35.059 73.306C35.059 73.2372 35.059 73.2181 34.8943 73.1989H34.7488C34.1935 73.1454 34.1476 73.2372 34.0633 73.5811H33.845C33.845 73.413 33.891 73.2486 33.9101 73.004C33.9293 72.7594 33.9293 72.5683 33.9369 72.4193H34.1744C34.1744 72.8015 34.2356 72.8894 34.6301 72.9238L34.99 72.9582C35.0026 72.9605 35.0156 72.96 35.028 72.9566C35.0403 72.9531 35.0517 72.947 35.0613 72.9385C35.071 72.93 35.0785 72.9195 35.0834 72.9076C35.0883 72.8958 35.0904 72.883 35.0896 72.8703L35.2007 71.5594C35.2007 71.4906 35.1777 71.4562 35.1164 71.4562L34.2395 71.3798C33.8297 71.3416 33.7072 71.4486 33.577 71.7619L33.4314 72.1059L33.1978 72.018C33.2985 71.6995 33.3741 71.3737 33.4238 71.0435L36.315 71.2881L36.2768 71.5212Z" fill="#231F20"/>
<path d="M32.9527 71.2382C32.4281 71.1809 32.3975 71.1885 32.3553 71.3185C32.3132 71.4484 32.2213 71.8994 32.0758 72.6828C31.9303 73.4663 31.8537 73.8714 31.8422 74.051C31.8307 74.2307 31.8652 74.2077 32.3783 74.3491L32.3362 74.5593L30.4712 74.2154C30.1462 74.1732 29.8472 74.0158 29.6287 73.772C29.5478 73.678 29.4892 73.567 29.4574 73.4472C29.4256 73.3274 29.4213 73.202 29.4449 73.0803C29.5866 72.3695 30.2568 72.1784 31.1644 72.3465C31.2984 72.3733 31.4439 72.4153 31.5205 72.423L31.7426 71.2115C31.7694 71.0739 31.7196 71.0471 31.1414 70.8981L31.1759 70.6879L32.991 71.0242L32.9527 71.2382ZM31.4746 72.6714C31.3952 72.6489 31.3147 72.631 31.2333 72.6179C30.724 72.5261 30.2376 72.5261 30.1113 73.2064C29.9849 73.8867 30.387 74.009 30.9384 74.1122C31.1759 74.1542 31.1988 74.1122 31.2218 74.0357L31.4746 72.6714Z" fill="#231F20"/>
<path d="M30.1955 70.7601C29.7896 70.676 29.69 70.783 29.4296 71.1423L27.9629 73.0532C27.8139 73.2365 27.6771 73.4292 27.5532 73.6302L27.2889 73.55C27.3078 73.3389 27.3078 73.1266 27.2889 72.9156L26.9787 70.2403C26.9443 69.8773 26.9213 69.8161 26.5039 69.7053L26.5651 69.4874L28.2654 69.969L28.2042 70.1754C27.7025 70.0569 27.6451 70.0951 27.6144 70.2212C27.6068 70.4765 27.6183 70.732 27.6489 70.9856C27.6607 71.0108 27.681 71.0311 27.7063 71.0429C27.8327 71.0926 28.0893 71.1728 28.5718 71.3104C28.8896 71.3983 28.9088 71.3792 28.9854 71.3104C29.1274 71.1346 29.2554 70.9481 29.3683 70.7524C29.4105 70.5919 29.3683 70.5461 28.9011 70.3703L28.9662 70.1601L30.2951 70.5422L30.1955 70.7601ZM27.714 71.3716C27.6719 71.3716 27.6527 71.3716 27.6489 71.3716C27.6468 71.411 27.6468 71.4506 27.6489 71.49L27.7791 72.8659L28.6292 71.7194C28.6292 71.6888 28.6714 71.6697 28.6752 71.6506C28.679 71.6315 28.6752 71.6123 28.6292 71.5971L27.714 71.3716Z" fill="#231F20"/>
<path d="M26.3469 69.6675C25.8605 69.5108 25.8337 69.5108 25.7648 69.6369C25.562 70.0503 25.3805 70.4738 25.221 70.9057C24.9147 71.6701 24.7615 72.0255 24.7155 72.1975C24.6696 72.3695 24.6964 72.3618 25.1444 72.5797L25.0602 72.7822L23.291 72.0561C23.0171 71.9743 22.7802 71.8 22.6208 71.5631C22.5483 71.4499 22.5069 71.3197 22.5008 71.1855C22.4948 71.0513 22.5243 70.9179 22.5863 70.7987C22.8659 70.0993 23.6854 70.2866 23.7007 70.2484C23.7141 70.2009 23.7141 70.1506 23.7007 70.1032L23.3637 68.7655C23.2795 68.4216 23.245 68.3834 23.0229 68.2687L23.0995 68.0662L23.8884 68.391L24.2981 70.3019C24.2981 70.363 24.3441 70.3898 24.5432 70.4624C24.7423 70.535 24.7462 70.5427 24.7653 70.4968C24.9346 70.1236 25.0816 69.7408 25.2057 69.3503C25.2478 69.2203 25.2287 69.1898 24.7768 68.9681L24.861 68.7655L26.4503 69.4152L26.3469 69.6675ZM24.5892 70.9287C24.6198 70.8408 24.6198 70.8102 24.3249 70.6879C23.6203 70.3974 23.3101 70.7452 23.2029 71.0166C23.042 71.3987 23.2259 71.7809 23.7313 72.0102C24.0645 72.1402 24.0875 72.1402 24.1373 72.0102L24.5892 70.9287Z" fill="#231F20"/>
<path d="M22.7013 68.1153C22.192 67.886 22.1576 67.886 22.0733 68.0006C21.9891 68.1153 21.924 68.249 21.7861 68.5165L20.687 70.6185L21.2155 70.8975C21.3687 70.9778 21.5065 70.8975 21.9814 70.4465L22.1729 70.6032C21.9662 70.8552 21.7865 71.128 21.6367 71.4173C21.5487 71.3523 21.4721 71.3026 21.3802 71.2415C21.3002 71.1829 21.2141 71.1329 21.1236 71.0924L19.5305 70.2707C19.3479 70.1814 19.1599 70.1036 18.9676 70.0376C19.1143 69.7469 19.2347 69.4438 19.3276 69.1319L19.5612 69.193C19.4731 69.8236 19.4693 69.9956 19.6263 70.0758L20.1509 70.3472L21.2538 68.2414C21.3917 67.9739 21.4682 67.8057 21.5142 67.7063C21.5602 67.607 21.5142 67.5458 21.0623 67.2592L21.1619 67.0643L22.8047 67.9165L22.7013 68.1153Z" fill="#231F20"/>
<path d="M20.3386 66.9311C19.8561 66.6483 19.8254 66.6483 19.7297 66.7476C19.634 66.847 19.3812 67.2254 18.9293 67.8942C18.4775 68.563 18.2477 68.8955 18.1634 69.0407C18.0792 69.1859 18.1175 69.2012 18.5464 69.5452L18.4238 69.7248L17.275 68.9414C17.275 68.9108 17.3171 68.8496 17.3324 68.7999L18.0715 66.0521L15.6245 67.8216L14.4756 67.0572L14.6058 66.8738C15.0884 67.1604 15.119 67.168 15.2109 67.0572C15.3028 66.9464 15.5632 66.5795 16.0113 65.9107C16.4593 65.2419 16.7006 64.9132 16.7772 64.7641C16.8538 64.6151 16.8346 64.6113 16.3942 64.2635L16.5091 64.0839L17.9988 65.1005L17.8801 65.2801C17.4129 65.0087 17.3669 65.0087 17.298 65.1157L15.6781 67.4814L18.2056 65.6623C18.2783 65.6088 18.3473 65.5591 18.4238 65.4941L18.7455 65.7119C18.7155 65.7803 18.6899 65.8505 18.6689 65.9221L17.8533 68.9796L19.2127 66.9999C19.2985 66.8676 19.3752 66.7297 19.4425 66.5871C19.5038 66.461 19.4961 66.4381 19.1017 66.1247L19.2242 65.9451L20.4496 66.7744L20.3386 66.9311Z" fill="#231F20"/>
<path d="M16.3557 64.1562C15.9728 63.8619 15.9383 63.8619 15.8349 63.9537C15.7315 64.0454 15.4328 64.3855 14.9082 64.9855C14.3835 65.5856 14.104 65.9028 14.0044 66.0442C13.9048 66.1856 13.9355 66.1856 14.2763 66.5334L14.1269 66.6977L12.6641 65.4136C12.4574 65.2431 12.2399 65.0861 12.0131 64.9435C12.2221 64.6894 12.4152 64.4226 12.5913 64.1447L12.7828 64.2518C12.4535 64.8556 12.4917 64.9817 13.0355 65.4556L13.384 65.7614C13.4338 65.7996 13.4683 65.7958 13.5219 65.7614L14.2878 64.8785C14.3337 64.825 14.3414 64.7944 14.215 64.6989L14.1193 64.6034C13.6942 64.2212 13.6061 64.2785 13.3304 64.5155L13.1542 64.3702C13.273 64.2441 13.384 64.1333 13.5372 63.9384C13.6904 63.7435 13.8206 63.5982 13.9201 63.4874L14.0963 63.6403C13.8704 63.9422 13.8627 64.053 14.1691 64.3167L14.4333 64.5575C14.4831 64.5919 14.5214 64.6034 14.5673 64.5575L15.4328 63.5715C15.4439 63.5633 15.4529 63.5527 15.4591 63.5404C15.4653 63.5281 15.4685 63.5145 15.4685 63.5008C15.4685 63.487 15.4653 63.4735 15.4591 63.4612C15.4529 63.4489 15.4439 63.4382 15.4328 63.4301L14.7971 62.8148C14.7539 62.7565 14.699 62.708 14.6358 62.6724C14.5726 62.6368 14.5026 62.6148 14.4304 62.608C14.3581 62.6011 14.2853 62.6095 14.2165 62.6327C14.1477 62.6558 14.0846 62.6931 14.0312 62.7422L13.7248 62.9447L13.5793 62.7269C13.8463 62.5216 14.1019 62.3022 14.3452 62.0695L16.5242 63.9804L16.3557 64.1562Z" fill="#231F20"/>
<path d="M13.8779 61.9892C13.4949 61.649 13.495 61.6414 13.3686 61.7216C13.2422 61.8019 12.9205 62.1038 12.3308 62.6542C11.741 63.2045 11.4423 63.4797 11.3313 63.6134C11.2202 63.7472 11.247 63.7586 11.5572 64.1446L11.3964 64.2861L10.6688 63.5217C10.6983 63.433 10.7213 63.3423 10.7377 63.2504L11.3734 60.4605L10.7837 61.0031C10.2016 61.5458 9.89523 61.8248 9.78035 61.9624C9.66546 62.1 9.69227 62.1115 10.0522 62.5357L9.88757 62.6847L8.89191 61.6185L9.05657 61.4694C9.38208 61.8172 9.43952 61.8325 9.65015 61.6567C9.86077 61.4809 10.1059 61.2745 10.3126 61.0758C11.0441 60.3917 11.6606 59.8146 11.9363 59.505L12.1929 59.784C12.0461 60.1869 11.9321 60.601 11.8521 61.0223L11.3811 63.1739L12.147 62.4707C12.7329 61.928 13.0354 61.6528 13.158 61.5114C13.2805 61.37 13.2384 61.37 12.8363 60.8847L13.0009 60.7356L14.0311 61.863L13.8779 61.9892Z" fill="#231F20"/>
<path d="M10.8374 58.5839C10.4544 58.1558 10.4544 58.1482 10.3204 58.2017C10.1864 58.2552 10.0753 58.3584 9.83406 58.5418L7.91932 59.9712L8.27163 60.4413C8.37886 60.5789 8.54353 60.5483 9.15241 60.361L9.25581 60.5789C8.96224 60.7234 8.68054 60.8908 8.41332 61.0795C8.35971 60.9916 8.31376 60.8961 8.26397 60.8158C8.21419 60.7355 8.15292 60.6438 8.09165 60.5636L7.03471 59.1495C6.90957 58.9857 6.77125 58.8323 6.62112 58.6909C6.88534 58.4983 7.13029 58.2808 7.35256 58.0412L7.53254 58.1979C7.1764 58.7329 7.10747 58.8743 7.20704 59.0234L7.56318 59.4935L9.47792 58.0679C9.71535 57.8883 9.86087 57.766 9.93746 57.6858C10.014 57.6055 10.037 57.5558 9.72684 57.0857L9.90682 56.9558L11.0135 58.4272L10.8374 58.5839Z" fill="#231F20"/>
<path d="M4.37702 54.984C3.92514 54.1355 4.25065 53.1304 5.24632 52.6106C6.24198 52.0909 7.2568 52.3775 7.70868 53.2183C8.16056 54.0591 7.82356 55.0757 6.83173 55.6069C5.83989 56.1381 4.81741 55.8247 4.37702 54.984ZM7.48274 53.3406C7.22999 52.8514 6.53685 52.6832 5.56799 53.203C4.59913 53.7228 4.34256 54.3763 4.60296 54.8693C4.86337 55.3623 5.54885 55.5228 6.51771 55.0069C7.48657 54.4909 7.74314 53.826 7.48274 53.3406Z" fill="#231F20"/>
<path d="M6.5024 51.5441C6.29178 51.1161 6.27263 51.1008 6.11945 51.1352C5.6848 51.2802 5.25789 51.4473 4.8404 51.6359C4.09365 51.9302 3.71453 52.0868 3.54986 52.1786C3.38519 52.2703 3.42349 52.2703 3.54986 52.7289L3.35839 52.8053L2.62313 51.0091C2.51853 50.7623 2.40093 50.5212 2.27081 50.2868C2.5709 50.1572 2.86139 50.0065 3.14011 49.8358L3.26265 50.0193C2.69589 50.4014 2.67291 50.539 2.9448 51.204L3.1133 51.6359C3.14011 51.6932 3.1784 51.7085 3.25116 51.6817L4.33874 51.2461C4.39618 51.2193 4.41916 51.1925 4.36171 51.055L4.3081 50.9136C4.09748 50.4053 4.00174 50.4053 3.6456 50.4932L3.55752 50.2791C3.71453 50.218 3.87154 50.1683 4.10131 50.0728C4.33108 49.9772 4.51106 49.9084 4.64127 49.8511L4.72934 50.0613C4.39235 50.2256 4.3464 50.325 4.48426 50.6957L4.62212 51.0244C4.64127 51.0817 4.6719 51.1085 4.74849 51.0779L5.89734 50.6078C6.02754 50.562 6.02371 50.5161 5.84373 49.9658L6.04286 49.8855L6.68621 51.4562L6.5024 51.5441Z" fill="#231F20"/>
<path d="M4.8403 47.2261C4.68712 46.714 4.66032 46.6949 4.5148 46.7102C4.36928 46.7255 3.9442 46.8248 3.16299 47.0044C2.38177 47.1841 1.98734 47.2834 1.81501 47.3408C1.64268 47.3981 1.66949 47.421 1.76523 47.9446L1.53929 47.9905L1.13336 46.2554L1.35164 46.2019C1.50482 46.7102 1.52397 46.7369 1.66949 46.714C1.88856 46.6833 2.10586 46.6412 2.3205 46.5879L2.65367 46.5114C2.80685 46.4732 2.81833 46.4579 2.7877 46.3242L2.48134 45.0018C2.44687 44.8719 2.42007 44.8642 2.27455 44.8986L1.93755 44.9713C1.70012 45.0362 1.40143 45.1088 1.30186 45.1394C1.20229 45.17 1.15634 45.2235 1.24059 45.7433L1.02996 45.7968L0.627869 44.0617L0.849979 44.0043C1.00316 44.5088 1.02231 44.5432 1.15634 44.5203C1.29037 44.4974 1.74608 44.4056 2.52346 44.226C3.30085 44.0464 3.70295 43.9508 3.87144 43.8897C4.03994 43.8285 4.01314 43.8094 3.92889 43.2897L4.14334 43.24L4.52629 44.9789L4.31566 45.0324C4.15865 44.5203 4.14334 44.4974 4.00165 44.5165C3.85996 44.5356 3.44254 44.6197 2.8528 44.7611C2.70728 44.7955 2.68813 44.8146 2.7226 44.9445L3.02896 46.2668C3.05959 46.4006 3.07874 46.4121 3.23192 46.3777C3.81783 46.2401 4.22759 46.1369 4.38077 46.0872C4.53394 46.0375 4.52246 46.0031 4.43438 45.4796L4.65649 45.4337L5.06241 47.1802L4.8403 47.2261Z" fill="#231F20"/>
<path d="M3.92897 43.1367C3.83323 42.6628 3.81791 42.6476 3.67239 42.6476C3.52687 42.6476 3.08265 42.6934 2.28995 42.7851C1.49724 42.8769 1.08366 42.9304 0.915163 42.9762C0.746665 43.0221 0.758154 43.0297 0.78496 43.5151L0.56285 43.5419L0.329251 41.631C0.297648 41.3654 0.247746 41.1024 0.179901 40.8437C0.421159 40.8016 1.00707 40.6831 1.1411 40.6373L1.2062 40.8437C0.555191 41.0692 0.497748 41.1762 0.589656 41.8947L0.639439 42.3609C0.639439 42.4221 0.689223 42.4488 0.758154 42.4412L1.92998 42.296C2.00274 42.296 2.01805 42.2959 2.00274 42.124L1.98359 41.9826C1.91849 41.4284 1.82275 41.3978 1.45129 41.3902L1.42831 41.1723C1.59681 41.1494 1.75382 41.1456 2.0104 41.1112C2.26697 41.0768 2.44696 41.05 2.58865 41.0233L2.61163 41.2526C2.22868 41.3367 2.16358 41.4169 2.22868 41.8106L2.2708 42.166C2.2708 42.231 2.30144 42.2539 2.3742 42.2501L3.67622 42.0896C3.74515 42.0896 3.77579 42.0514 3.77196 41.9864L3.66856 41.1112C3.61878 40.7023 3.49624 40.6105 3.14009 40.5417L2.77629 40.4806L2.81459 40.2322C3.14859 40.2565 3.48392 40.2565 3.81791 40.2322L4.16257 43.0985L3.92897 43.1367Z" fill="#231F20"/>
<path d="M3.53482 39.9567C3.49652 39.5554 3.37398 39.4866 2.92593 39.3222L0.678018 38.4738C0.458349 38.3824 0.233262 38.3045 0.00402832 38.2407V37.9693C0.218351 37.9318 0.427746 37.8703 0.628235 37.7859L3.10974 36.7196C3.44291 36.5858 3.49269 36.5476 3.49269 36.1119H3.69182L3.72246 37.87H3.50035C3.47737 37.354 3.42376 37.3158 3.29356 37.3158C3.04035 37.381 2.7941 37.4705 2.5583 37.5833C2.54606 37.5898 2.53552 37.599 2.52754 37.6103C2.51955 37.6216 2.51435 37.6346 2.51234 37.6483C2.51234 37.7782 2.51234 38.0305 2.51234 38.5617C2.51234 38.8866 2.54298 38.898 2.65403 38.9439C2.86284 39.0299 3.07961 39.0951 3.30122 39.1388C3.4544 39.1388 3.49269 39.0776 3.52333 38.5885H3.73778L3.76458 39.9681L3.53482 39.9567ZM2.23279 37.7859C2.23279 37.74 2.23279 37.7209 2.20598 37.7209C2.16517 37.7276 2.12531 37.7391 2.08727 37.7553L0.808221 38.2674L2.13705 38.7604C2.16475 38.7734 2.19461 38.7812 2.22513 38.7834C2.22513 38.7834 2.24811 38.7566 2.24811 38.7222L2.23279 37.7859Z" fill="#231F20"/>
<path d="M3.49643 35.9743C3.49643 35.4775 3.49643 35.4469 3.34325 35.4278C3.19007 35.4087 2.76117 35.3628 1.96846 35.2864C1.17576 35.2099 0.758344 35.1832 0.578358 35.187C0.398372 35.1908 0.421349 35.2176 0.34093 35.6991L0.11499 35.68L0.26434 34.0328H0.478791C0.478791 34.5297 0.478792 34.5564 0.631971 34.5832C0.785151 34.6099 1.04556 34.6367 1.29064 34.6634L3.34325 34.8392C3.52323 34.8392 3.56153 34.8048 3.58068 34.652L3.62663 34.0596C3.67258 33.5628 3.52706 33.471 2.83393 33.1233L2.92583 32.8978C3.2629 33.0058 3.60891 33.0839 3.9598 33.1309L3.71471 35.9743H3.49643Z" fill="#231F20"/>
<path d="M3.83345 32.5767C3.89089 32.0188 3.88323 31.992 3.74154 31.95C3.55255 31.8974 3.36078 31.8553 3.16712 31.8239L0.815815 31.4226L0.723908 32.0073C0.689442 32.1869 0.819645 32.2786 1.37875 32.5844L1.29067 32.8175C0.985413 32.705 0.671687 32.6168 0.352448 32.5538C0.379254 32.4544 0.40989 32.3627 0.432867 32.2595C0.455844 32.1564 0.478821 32.0646 0.497968 31.9691L0.796668 30.2187C0.835239 30.0197 0.854476 29.8175 0.85411 29.6149C1.17467 29.6639 1.49869 29.6869 1.82297 29.6837V29.9244C1.19494 30.0353 1.0341 30.0735 1.00346 30.2455L0.900064 30.834L3.25137 31.2429C3.44378 31.2787 3.63815 31.3029 3.83345 31.3156C3.97514 31.3156 4.00195 31.3156 4.13215 30.7576L4.3466 30.792L4.02493 32.6073L3.83345 32.5767Z" fill="#231F20"/>
<path d="M4.23155 30.112C4.33877 29.5961 4.33495 29.5578 4.20474 29.5043C4.07454 29.4508 3.63798 29.3247 2.87208 29.1222C2.10618 28.9196 1.70409 28.7973 1.53176 28.7667C1.35943 28.7362 1.36326 28.7667 1.18328 29.2674L0.972656 29.2062L1.459 27.4673L1.66962 27.5246C1.5624 28.0406 1.57389 28.075 1.70409 28.1247C1.83429 28.1744 2.08704 28.2623 2.33595 28.331L2.66912 28.4228C2.80698 28.4648 2.83379 28.4572 2.87591 28.3272L3.25886 27.0202C3.2895 26.8902 3.28184 26.8711 3.13249 26.8291L2.79549 26.7335C2.56955 26.6647 2.26702 26.596 2.1598 26.5692C2.05257 26.5424 1.9913 26.5692 1.81514 27.0737L1.60452 27.0087L2.09087 25.2927L2.30149 25.3501C2.19809 25.8736 2.20192 25.9042 2.33212 25.9577C2.46233 26.0112 2.89889 26.1335 3.66479 26.3399C4.43068 26.5463 4.81363 26.6647 5.00893 26.6991C5.20424 26.7335 5.16594 26.6991 5.35359 26.2023L5.56421 26.2558L5.06255 28.0024L4.84044 27.9412C4.95149 27.4291 4.94383 27.3909 4.81363 27.3412C4.68343 27.2915 4.27367 27.1616 3.69159 26.9972C3.54607 26.959 3.52309 26.9705 3.4848 27.089L3.10185 28.3998C3.06356 28.526 3.07887 28.5489 3.22822 28.5947C3.80648 28.7553 4.21623 28.8623 4.37707 28.8928C4.53791 28.9234 4.53791 28.8928 4.72172 28.3922L4.92469 28.4495L4.45749 30.1693L4.23155 30.112Z" fill="#231F20"/>
<path d="M7.61313 21.1462C7.66809 21.4318 7.63608 21.7273 7.52123 21.9946C7.41017 22.2278 7.2187 22.3501 6.83575 22.4838C6.94741 22.8463 6.92011 23.2372 6.75916 23.5807C6.7059 23.7134 6.62569 23.8336 6.52359 23.9339C6.42149 24.0341 6.29969 24.1122 6.16588 24.1632C6.03207 24.2142 5.88913 24.2369 5.74606 24.2301C5.603 24.2232 5.4629 24.1869 5.33459 24.1234C4.88654 23.9094 4.6606 23.5119 4.64145 22.7666C4.33816 22.8283 4.02398 22.8099 3.73003 22.7131C3.42367 22.5641 3.2322 22.2354 3.47729 21.7157C3.68791 21.2723 4.0249 21.066 4.41551 21.2532C4.5773 21.347 4.70609 21.4884 4.78424 21.6581C4.86238 21.8278 4.88608 22.0174 4.85207 22.201C5.40735 22.1666 5.93199 22.1208 6.45663 22.0405C6.36745 21.7666 6.19639 21.5266 5.96645 21.3526C5.82859 21.2876 5.73286 21.3526 5.61414 21.5284L5.41884 21.4328L5.92433 20.3551L6.13112 20.4468C6.06777 20.571 6.04585 20.7122 6.06859 20.8497C6.09133 20.9872 6.15752 21.1139 6.2575 21.2112C6.435 21.4478 6.5841 21.7043 6.70172 21.9755C7.13445 21.8838 7.24933 21.8303 7.34507 21.6316C7.41562 21.4384 7.43281 21.2298 7.39485 21.0277L7.61313 21.1462ZM4.65677 22.2354C4.65937 22.1118 4.6241 21.9903 4.55567 21.8871C4.48724 21.784 4.38891 21.7042 4.27382 21.6583C4.23018 21.6273 4.1805 21.6057 4.12798 21.595C4.07546 21.5843 4.02128 21.5848 3.96894 21.5963C3.9166 21.6078 3.86727 21.6302 3.82414 21.6619C3.781 21.6937 3.74503 21.7341 3.71854 21.7806C3.69928 21.8253 3.68981 21.8735 3.69079 21.9221C3.69176 21.9706 3.70316 22.0184 3.7242 22.0623C3.74525 22.1061 3.77546 22.1449 3.81279 22.1761C3.85013 22.2073 3.89373 22.2301 3.94065 22.2431C4.16637 22.3357 4.41957 22.3357 4.64528 22.2431L4.65677 22.2354ZM6.56002 23.1947C6.64533 22.9929 6.6628 22.769 6.60981 22.5565C6.03252 22.6752 5.44527 22.7392 4.8559 22.7475C4.84185 22.9056 4.87743 23.0641 4.95772 23.2011C5.038 23.338 5.15901 23.4467 5.30395 23.5119C5.6869 23.6839 6.34557 23.6495 6.56002 23.187" fill="#231F20"/>
<path d="M8.4862 19.6055C8.76192 19.1545 8.76575 19.1201 8.65853 19.0208C8.5513 18.9214 8.1875 18.6768 7.52117 18.2182C6.85484 17.7596 6.52933 17.5226 6.37232 17.4538C6.21531 17.385 6.20766 17.3965 5.88215 17.8093L5.69833 17.6793L6.75527 16.2041L6.93143 16.3264C6.65953 16.785 6.65571 16.8194 6.7591 16.9111C6.8625 17.0029 7.0961 17.1672 7.30289 17.2933L7.57861 17.4844C7.6935 17.5685 7.72796 17.5685 7.80838 17.4844L8.57428 16.3723C8.64704 16.2576 8.64321 16.2385 8.51301 16.1468L8.2258 15.948C8.03049 15.8066 7.77392 15.6423 7.67435 15.5659C7.57478 15.4894 7.52117 15.52 7.188 15.9251L7.01185 15.8028L8.03049 14.3429L8.21814 14.4614C7.94624 14.9123 7.94624 14.9506 8.04198 15.0423C8.13772 15.134 8.51301 15.3977 9.19083 15.8563C9.86865 16.3149 10.1788 16.5481 10.3397 16.6207C10.5005 16.6933 10.4967 16.6742 10.826 16.2385L11.0098 16.3684L9.98736 17.8322L9.79972 17.7061C10.0754 17.2551 10.0831 17.2131 9.97587 17.1252C9.86865 17.0373 9.51633 16.785 9.0185 16.4372C8.89979 16.3493 8.86915 16.3493 8.79639 16.4602L8.03049 17.5723C7.9539 17.6793 7.96156 17.7061 8.08793 17.7901C8.58194 18.1418 8.93425 18.3787 9.05679 18.4475C9.17934 18.5163 9.21763 18.501 9.55463 18.0882L9.72313 18.2182L8.67002 19.7316L8.4862 19.6055Z" fill="#231F20"/>
<path d="M8.4249 13.8728L9.62735 12.5619L9.78819 12.7034C9.46269 13.1199 9.4512 13.1505 9.53928 13.2652C9.62735 13.3798 9.96435 13.6703 10.937 14.5416C11.2472 14.8206 11.8025 15.1569 12.3425 14.5722C12.9475 13.8957 12.6909 13.5059 11.9059 12.7913C11.2779 12.2218 10.9677 11.9543 10.8222 11.8435C10.6766 11.7326 10.6805 11.7708 10.2745 12.1683L10.1137 12.0116L11.1094 10.9186L11.2779 11.0562C10.9485 11.4766 10.937 11.511 11.0328 11.6218C11.1285 11.7326 11.4578 12.0231 12.2888 12.7683C12.8824 13.3034 13.3764 13.8919 12.4995 14.855C12.3887 15.008 12.2448 15.1342 12.0786 15.2243C11.9124 15.3144 11.7281 15.3662 11.5392 15.3757C11.3503 15.3853 11.1616 15.3524 10.9871 15.2794C10.8127 15.2065 10.6568 15.0954 10.5311 14.9544C9.57374 14.0945 9.26738 13.8078 9.12186 13.7199C8.97634 13.632 8.97634 13.6435 8.59339 14.0104L8.4249 13.8728Z" fill="#231F20"/>
<path d="M13.5563 13.2008C13.9622 12.8186 13.966 12.7766 13.8933 12.6619C13.8205 12.5473 13.5103 12.1919 13.0048 11.5957C12.4993 10.9995 12.2121 10.6784 12.0781 10.56C11.9441 10.4415 11.9402 10.4682 11.496 10.8045L11.3505 10.6517L12.4074 9.74209C12.4447 9.77826 12.4858 9.81029 12.53 9.83763L14.9962 11.2593L13.9163 8.44268L14.9502 7.55603L15.0957 7.72037C14.7128 8.10255 14.6783 8.14841 14.7626 8.26306C14.8468 8.37771 15.1455 8.71785 15.6472 9.32934C16.1488 9.94082 16.4437 10.2466 16.5816 10.365C16.7194 10.4835 16.7118 10.4568 17.1637 10.1128L17.3053 10.281L15.9459 11.416L15.7965 11.2517C16.1795 10.8695 16.1795 10.8275 16.1144 10.7319L14.2456 8.55352L15.3638 11.4466C15.3923 11.5348 15.4281 11.6205 15.471 11.7027L15.18 11.9893C15.121 11.9433 15.0582 11.9024 14.9923 11.867L12.2619 10.2924L13.8282 12.104C13.9346 12.2218 14.0471 12.3341 14.1652 12.4403C14.2801 12.532 14.2992 12.5243 14.7051 12.2301L14.8468 12.3906L13.7286 13.3537L13.5563 13.2008Z" fill="#231F20"/>
<path d="M17.409 9.95583C17.7307 9.71124 17.7192 9.57366 17.6273 9.1074L17.1447 6.74936C17.1051 6.51861 17.0527 6.29023 16.9877 6.06526L17.2098 5.92767C17.3662 6.06706 17.5326 6.19479 17.7077 6.30985L19.9326 7.83857C20.2275 8.04494 20.2926 8.07552 20.6525 7.83857L20.7713 8.02201L19.2931 8.98128L19.1705 8.79019C19.5994 8.49591 19.6071 8.43859 19.5305 8.32775C19.3412 8.14801 19.1362 7.98557 18.9178 7.84239C18.9054 7.8357 18.8916 7.83219 18.8776 7.83219C18.8635 7.83219 18.8497 7.8357 18.8374 7.84239C18.7263 7.90354 18.4965 8.03348 18.0715 8.31629C17.7996 8.48827 17.8034 8.52649 17.8187 8.64496C17.8575 8.866 17.9191 9.08245 18.0025 9.29084C18.0868 9.42461 18.1557 9.42461 18.5846 9.18001L18.7033 9.37492L17.5545 10.1202L17.409 9.95583ZM18.5808 7.69716C18.6153 7.67041 18.6229 7.64748 18.6114 7.63219C18.5999 7.6169 18.5463 7.58251 18.5272 7.55958L17.409 6.74554L17.6924 8.13667C17.6989 8.16415 17.7079 8.191 17.7192 8.21692C17.7192 8.23603 17.7651 8.21692 17.7843 8.21692L18.5808 7.69716Z" fill="#231F20"/>
<path d="M20.8092 7.76578C21.2419 7.51354 21.2611 7.48297 21.1922 7.34921C21.1232 7.21544 20.9624 6.82944 20.6063 6.09948C20.2501 5.36952 20.0701 5.01792 19.9667 4.86887C19.8633 4.71982 19.8557 4.74657 19.4 4.93766L19.3042 4.73893L20.2616 4.26885L20.4952 4.41026L22.9959 5.80903L22.6397 5.09053C22.2836 4.37968 22.0998 4.00897 22.0002 3.85992C21.9006 3.71087 21.8968 3.73762 21.3721 3.95164L21.307 3.77202L22.6167 3.12231L22.7125 3.31723C22.2797 3.53125 22.2568 3.58093 22.3678 3.84081C22.4789 4.10069 22.6091 4.37968 22.7508 4.6281C23.2026 5.52622 23.5779 6.27911 23.8 6.63453L23.4592 6.79887C23.1151 6.54115 22.7486 6.31475 22.364 6.12241L20.4492 5.05614L20.9126 5.98483C21.2688 6.69568 21.4564 7.07022 21.5483 7.21927C21.6402 7.36832 21.6594 7.33774 22.2376 7.09315L22.3334 7.28806L20.9011 7.97598L20.8092 7.76578Z" fill="#231F20"/>
<path d="M26.2242 4.29583C26.565 4.8347 26.9557 5.15191 27.4803 4.9914C28.0049 4.83088 28.2002 4.42577 28.1083 4.11621C28.0164 3.80664 27.7254 3.75696 27.3424 3.73403H26.9174C25.9447 3.73403 25.7685 3.43975 25.6307 3.05375C25.4353 2.41552 25.8298 1.83078 26.5919 1.59383C26.9171 1.49143 27.2544 1.43232 27.5952 1.41803C27.5952 1.47153 27.6335 1.56326 27.6603 1.63587C27.733 1.869 27.8173 2.10595 27.9169 2.3429L27.6833 2.41552C27.4114 1.83078 27.0514 1.71231 26.5727 1.85753C26.3913 1.89463 26.2311 1.99969 26.1249 2.15112C26.0188 2.30254 25.9748 2.4888 26.0021 2.67157C26.071 2.88942 26.2281 3.00407 26.6302 3.02318L27.5416 3.05757C28.1275 3.08051 28.4185 3.28688 28.5602 3.75696C28.767 4.41813 28.3496 4.9914 27.5454 5.23981C27.1854 5.35065 26.7795 5.31625 26.3966 5.42326C26.3123 5.17102 26.1361 4.73152 26.0136 4.41813L26.2242 4.29583Z" fill="#231F20"/>
<path d="M29.0851 4.44471C29.5447 4.31477 29.56 4.29184 29.5561 4.15808C29.5523 4.02431 29.4451 3.57334 29.2881 2.78988C29.1311 2.00641 29.043 1.60895 28.9856 1.44079C28.9281 1.27263 28.909 1.29556 28.4379 1.35289L28.3958 1.14651L30.3106 0.745223C30.5712 0.69117 30.8273 0.617061 31.0765 0.52356C31.1499 0.848294 31.2459 1.16754 31.3637 1.47901L31.1569 1.55544C30.8735 0.93249 30.7739 0.890451 30.0463 1.0395L29.5906 1.09683C29.5771 1.09865 29.5642 1.10357 29.5529 1.11121C29.5417 1.11884 29.5323 1.12899 29.5256 1.14084C29.5189 1.1527 29.5151 1.16594 29.5144 1.17952C29.5137 1.1931 29.5162 1.20666 29.5217 1.21912L29.7629 2.36566C29.7629 2.43827 29.7897 2.45356 29.9353 2.43063L30.0846 2.40388C30.6361 2.29305 30.6514 2.1975 30.6246 1.82679L30.8467 1.78093C30.8773 1.94526 30.9041 2.1096 30.9501 2.35037C30.996 2.59114 31.0535 2.77841 31.0841 2.916L30.8658 2.9695C30.7548 2.61025 30.6744 2.53764 30.2684 2.62172L29.9238 2.68669C29.8625 2.7058 29.8357 2.73255 29.851 2.80134L30.1153 4.09693C30.1162 4.11059 30.1203 4.12385 30.1273 4.13565C30.1342 4.14745 30.1439 4.15746 30.1554 4.16489C30.1669 4.17231 30.18 4.17695 30.1937 4.17842C30.2073 4.17989 30.2211 4.17816 30.234 4.17336L31.0918 4.00138C31.5054 3.90966 31.582 3.78354 31.6164 3.42812L31.6509 3.04594H31.8998C31.9011 3.37957 31.9242 3.71276 31.9687 4.04342L29.1272 4.6358L29.0851 4.44471Z" fill="#231F20"/>
<path d="M32.3553 3.77217C32.8761 3.68809 32.903 3.66516 32.903 3.52376C32.903 3.38235 32.8723 2.9352 32.7881 2.14409C32.7038 1.35298 32.6732 0.940231 32.6349 0.764429C32.5966 0.588627 32.5736 0.615379 32.0413 0.630666V0.416647L34.0288 0.217914C34.32 0.159804 34.6222 0.201552 34.8866 0.336389C34.9996 0.40142 35.0941 0.494181 35.1612 0.605877C35.2282 0.717573 35.2655 0.844501 35.2696 0.974627C35.3423 1.73898 34.5037 1.94154 34.5037 1.98358C34.5037 2.02562 34.5267 2.04091 34.5879 2.11352L35.5491 3.12629C35.7827 3.38617 35.8478 3.42821 36.1044 3.40528L36.1236 3.6193L35.2428 3.7072L33.9446 2.19378C33.9025 2.14792 33.8642 2.14409 33.6382 2.15938C33.4123 2.17467 33.4161 2.19378 33.4199 2.24728C33.5118 3.16833 33.5348 3.31356 33.5616 3.45114C33.5884 3.58873 33.6229 3.60402 34.1514 3.58491V3.80657L32.3745 3.97855L32.3553 3.77217ZM33.3625 1.83071C33.3625 1.92243 33.3893 1.94536 33.7225 1.91479C34.5228 1.84217 34.6301 1.38738 34.6032 1.10075C34.5573 0.676528 34.2203 0.420468 33.6344 0.473973C33.2514 0.508369 33.2514 0.527478 33.2514 0.653597L33.3625 1.83071Z" fill="#231F20"/>
<path d="M35.4303 0.0650266L37.1995 0.0344522V0.252294H36.9544C36.717 0.252294 36.6672 0.332551 36.6672 0.416631C36.6672 0.50071 36.9391 1.18099 37.211 1.88037L37.5939 2.85111L37.9769 1.80776C38.169 1.34281 38.329 0.865237 38.4556 0.378413C38.4556 0.237007 38.3713 0.233185 37.9118 0.237007V0.019165H39.3019V0.237007H39.1525C38.9151 0.237007 38.8232 0.344017 38.5858 0.963146C37.7892 3.0422 37.7012 3.28297 37.6246 3.73012H37.2837C36.9449 2.70255 36.5459 1.69569 36.0889 0.71473C35.8783 0.275225 35.8439 0.271403 35.4341 0.267581L35.4303 0.0650266Z" fill="#231F20"/>
<path d="M39.4437 3.44705C40.0028 3.44705 40.0334 3.44705 40.0602 3.30182C40.087 3.15659 40.1292 2.71709 40.1904 1.92598C40.2517 1.13487 40.29 0.718293 40.2824 0.538669C40.2747 0.359045 40.2479 0.381976 39.6926 0.297896L39.7156 0.0762329L41.5614 0.229104L41.5384 0.446946C40.9831 0.446946 40.9449 0.446946 40.9257 0.588352C40.8562 1.04678 40.8114 1.50861 40.7917 1.97184C40.7266 2.76677 40.6883 3.1757 40.6998 3.34768C40.7113 3.51966 40.7342 3.51202 41.2857 3.59227V3.81012L39.436 3.66489L39.4437 3.44705Z" fill="#231F20"/>
<path d="M44.9656 3.54635C44.7595 3.7927 44.4923 3.98089 44.1906 4.09219C43.8889 4.20349 43.5633 4.23403 43.2462 4.18077C42.4305 4.047 41.6378 3.33997 41.8484 2.05585C41.8736 1.80575 41.9513 1.56375 42.0765 1.34563C42.2017 1.12751 42.3715 0.938175 42.5749 0.789966C42.7784 0.641758 43.0108 0.538006 43.2571 0.485476C43.5034 0.432947 43.7581 0.432819 44.0044 0.485101C44.3672 0.558499 44.7205 0.672604 45.0575 0.82524C45.0269 1.15552 45.0166 1.48737 45.0269 1.8189H44.7741C44.6899 1.19213 44.4333 0.802309 43.8512 0.706765C43.2079 0.603576 42.6756 1.15009 42.5186 2.12465C42.3501 3.16035 42.8173 3.77566 43.4109 3.86738C43.6583 3.90989 43.9126 3.88829 44.1492 3.80464C44.3859 3.721 44.5972 3.57811 44.7627 3.38966L44.9656 3.54635Z" fill="#231F20"/>
<path d="M45.0081 4.17339C45.4829 4.26511 45.5097 4.25747 45.5595 4.1237C45.6093 3.98994 45.7395 3.56572 45.9425 2.7899C46.1454 2.01408 46.2565 1.64337 46.2871 1.44463C46.3177 1.2459 46.2871 1.28412 45.8276 1.1236L45.885 0.905762L47.7615 1.41788C48.023 1.48687 48.2892 1.53669 48.558 1.56693C48.4967 1.81152 48.3972 2.39244 48.3857 2.53766H48.1712C48.2019 1.84974 48.1138 1.7542 47.4053 1.57075L46.9649 1.43317C46.8998 1.43317 46.8615 1.43317 46.8424 1.5096L46.536 2.65614C46.536 2.71729 46.536 2.75168 46.6701 2.7899L46.8156 2.82812C47.3517 2.97335 47.4168 2.89691 47.5547 2.55677L47.7806 2.61792C47.727 2.78226 47.6734 2.92748 47.6121 3.1759C47.5508 3.42432 47.5049 3.60012 47.4743 3.74535L47.2445 3.68802C47.3172 3.30584 47.279 3.2103 46.8845 3.11093L46.5437 3.00774C46.5314 3.00291 46.5181 3.00104 46.5049 3.00229C46.4917 3.00355 46.479 3.00789 46.4678 3.01496C46.4566 3.02203 46.4472 3.03164 46.4405 3.04301C46.4337 3.05437 46.4297 3.06716 46.4288 3.08036L46.088 4.34919C46.088 4.41416 46.088 4.44855 46.1531 4.46766L47.0071 4.69315C47.0718 4.72654 47.1428 4.74601 47.2156 4.75029C47.2883 4.75457 47.3612 4.74356 47.4294 4.71799C47.4976 4.69241 47.5597 4.65284 47.6116 4.60182C47.6635 4.5508 47.7041 4.48947 47.7308 4.4218L47.9223 4.10459L48.1368 4.23836C47.9902 4.53589 47.8623 4.84222 47.7538 5.15559L44.9506 4.39123L45.0081 4.17339Z" fill="#231F20"/>
<path d="M48.9255 4.26922C48.8604 4.90364 48.9791 5.38901 49.4961 5.58774C50.0131 5.78647 50.4113 5.58774 50.5224 5.27435C50.6334 4.96097 50.442 4.75459 50.1394 4.51L49.8024 4.24247C49.0365 3.63863 49.0633 3.30231 49.205 2.92013C49.4463 2.29336 50.1241 2.0717 50.8632 2.35069C51.1794 2.46845 51.4802 2.62371 51.7593 2.81312C51.7376 2.88751 51.7107 2.9603 51.6789 3.03097C51.5908 3.26792 51.5257 3.50105 51.4491 3.74564L51.2155 3.66538C51.361 3.03479 51.1466 2.72522 50.687 2.55324C50.5214 2.4668 50.3282 2.44923 50.1495 2.50435C49.9709 2.55947 49.8214 2.68283 49.7335 2.84752C49.6569 3.06154 49.7105 3.2297 50.0207 3.50105L50.7177 4.08196C51.1657 4.46413 51.2691 4.79663 51.1006 5.26289C50.8555 5.92023 50.1777 6.11132 49.3927 5.81705C49.0365 5.69093 48.7225 5.39283 48.3779 5.27053C48.4698 5.01829 48.6038 4.56732 48.6842 4.23101L48.9255 4.26922Z" fill="#231F20"/>
<path d="M53.0919 4.9912C53.1737 5.03506 53.2354 5.10882 53.2641 5.19704C53.2927 5.28527 53.286 5.38112 53.2455 5.46456C53.2049 5.54799 53.1336 5.61254 53.0464 5.64469C52.9593 5.67685 52.863 5.67412 52.7778 5.63708C52.7348 5.61792 52.6962 5.59016 52.6644 5.55553C52.6325 5.52089 52.6082 5.48011 52.5927 5.4357C52.5773 5.39129 52.5711 5.3442 52.5747 5.29733C52.5782 5.25046 52.5913 5.2048 52.6132 5.16318C52.6325 5.11984 52.6604 5.08085 52.6952 5.04855C52.73 5.01625 52.771 4.99132 52.8157 4.97525C52.8605 4.95918 52.908 4.95231 52.9554 4.95506C53.0029 4.9578 53.0493 4.97009 53.0919 4.9912Z" fill="#231F20"/>
<path d="M54.7694 4.11237L56.3011 5.01049L56.1863 5.19393C55.7076 4.96462 55.6846 4.96462 55.5927 5.07928C55.5008 5.19393 55.2825 5.57993 54.6162 6.69971C54.417 7.05132 54.1911 7.67045 54.8881 8.07556C55.654 8.52653 55.9986 8.2055 56.5386 7.28445C56.9636 6.55831 57.1704 6.19906 57.247 6.03855C57.3236 5.87803 57.2853 5.87803 56.8143 5.56464L56.9253 5.37355L58.2197 6.13791L58.1048 6.32136C57.63 6.08823 57.5993 6.08441 57.5113 6.19906C57.4232 6.31371 57.1934 6.69207 56.6266 7.65898C56.236 8.35837 55.7727 8.9431 54.6238 8.28958C54.4497 8.21303 54.2951 8.09822 54.1716 7.95371C54.0481 7.8092 53.9589 7.63872 53.9107 7.45501C53.8625 7.27129 53.8564 7.07907 53.8931 6.8927C53.9297 6.70633 54.008 6.53062 54.1222 6.37868C54.7732 5.26654 54.98 4.91112 55.0489 4.74678C55.1178 4.58245 55.0872 4.59009 54.666 4.29199L54.7694 4.11237Z" fill="#231F20"/>
<path d="M57.5687 8.61799C57.3313 9.20654 57.316 9.7072 57.7487 10.0397C58.1814 10.3722 58.641 10.2805 58.8324 10.0397C59.0239 9.79892 58.8899 9.51229 58.6678 9.19508L58.4265 8.85112C57.8636 8.05619 57.967 7.74662 58.2159 7.41413C58.5988 6.8829 59.3226 6.84468 59.966 7.31476C60.2338 7.50862 60.4802 7.73024 60.7012 7.97593C60.6629 8.02943 60.6017 8.10205 60.5595 8.15555C60.414 8.35811 60.28 8.56831 60.1421 8.78615L59.943 8.64474C60.257 8.0753 60.1345 7.71605 59.74 7.42941C59.6054 7.30115 59.4264 7.22959 59.2403 7.22959C59.0542 7.22959 58.8752 7.30115 58.7405 7.42941C58.6103 7.61668 58.6103 7.81159 58.8324 8.14027L59.3456 8.90462C59.6749 9.38999 59.6788 9.74159 59.3877 10.1391C58.978 10.6932 58.2657 10.7009 57.5917 10.2079C57.2815 9.97854 57.0671 9.62312 56.7645 9.40528C56.9139 9.18361 57.1743 8.78615 57.3351 8.4804L57.5687 8.61799Z" fill="#231F20"/>
<path d="M59.131 10.9609C59.4451 11.2131 59.5829 11.1634 60.0042 10.9609L62.1678 9.90608C62.5508 9.71499 62.6274 9.67295 62.7959 9.56976L62.995 9.74939C62.8867 9.93373 62.7969 10.1283 62.7269 10.3303L61.8002 12.8718C61.6776 13.2119 61.6662 13.254 61.9878 13.5597L61.8461 13.7164L60.5403 12.5393L60.682 12.375C61.0841 12.7074 61.1492 12.7074 61.2334 12.6043C61.3551 12.3739 61.4601 12.135 61.5474 11.8896C61.5506 11.873 61.5494 11.8558 61.5441 11.8398C61.5387 11.8237 61.5293 11.8093 61.5168 11.7979C61.4287 11.6985 61.2373 11.5151 60.8581 11.1673C60.6169 10.9494 60.5901 10.9571 60.4752 11.0106C60.2699 11.1028 60.0737 11.2141 59.8893 11.3431C59.7859 11.4615 59.805 11.5227 60.142 11.8858L59.9888 12.0463L58.9664 11.1138L59.131 10.9609ZM61.6125 11.5151C61.647 11.5494 61.6662 11.5456 61.6815 11.5418C61.7035 11.5089 61.7203 11.4728 61.7313 11.4348L62.2368 10.1469L60.9692 10.7774L60.8926 10.8195C60.8873 10.8312 60.8867 10.8445 60.891 10.8566C60.8953 10.8687 60.9041 10.8787 60.9156 10.8845L61.6125 11.5151Z" fill="#231F20"/>
</g>
<defs>
<clipPath id="clip0">
<rect width="76" height="76" fill="white"/>
</clipPath>
</defs>
</svg>
