<svg width="200" height="39" viewBox="0 0 200 39" fill="none" xmlns="http://www.w3.org/2000/svg">
<path d="M0 36.9802V28H1.12391V32.4571L5.33859 28H6.86212L3.30306 31.6581L7.04944 37H5.5384L2.51632 32.4571L1.12391 33.8899V37L0 36.9802Z" fill="#888888"/>
<path fill-rule="evenodd" clip-rule="evenodd" d="M14.0282 34.831L12.8867 34.6881C12.7593 35.0862 12.5233 35.438 12.2071 35.7016C11.906 35.9247 11.5419 36.0394 11.1713 36.0281C10.658 36.0417 10.1636 35.8289 9.81207 35.4431C9.42664 34.9835 9.21159 34.3979 9.20506 33.7903H14.0941V33.4842C14.1412 32.5452 13.8338 31.6238 13.2364 30.9132C12.6878 30.3052 11.9102 29.9727 11.1053 30.0018C10.2723 29.9758 9.46978 30.3261 8.90816 30.9608C8.30798 31.6905 8.0053 32.6315 8.06362 33.5863C8.00999 34.5124 8.31084 35.4233 8.90156 36.1233C9.50417 36.7321 10.3292 37.0486 11.1713 36.9939C11.835 37.0232 12.4893 36.8246 13.0319 36.4294C13.5307 36.029 13.8822 35.4651 14.0282 34.831ZM12.8999 32.8518H9.271C9.27491 32.3189 9.48093 31.8086 9.84502 31.4302C10.1826 31.0842 10.6425 30.8951 11.1184 30.9065C11.6524 30.8979 12.1588 31.1501 12.4842 31.5867C12.7426 31.9559 12.8874 32.3967 12.8999 32.8518Z" fill="#888888"/>
<path fill-rule="evenodd" clip-rule="evenodd" d="M21.1344 34.8298L19.9821 34.687C19.8535 35.085 19.6153 35.4367 19.2961 35.7002C18.992 35.9233 18.6246 36.038 18.2503 36.0266C17.7322 36.0402 17.2331 35.8275 16.8782 35.4418C16.4906 34.984 16.2736 34.4013 16.2654 33.7962H21.1411V33.4902C21.1995 32.5536 20.9012 31.6303 20.3085 30.913C19.7547 30.3051 18.9697 29.9727 18.1571 30.0018C17.3254 29.9837 16.5265 30.3333 15.9657 30.9606C15.3598 31.6901 15.0543 32.6308 15.1131 33.5854C15.059 34.5113 15.3627 35.422 15.959 36.1218C16.5737 36.7378 17.4178 37.0548 18.277 36.9922C18.947 37.0214 19.6076 36.8229 20.1553 36.4278C20.649 36.0233 20.9941 35.46 21.1344 34.8298ZM19.9955 32.8511H16.3322H16.3255C16.3312 32.3173 16.5417 31.8071 16.9116 31.4299C17.2525 31.0839 17.7167 30.8948 18.1972 30.9062C18.7362 30.8977 19.2475 31.1498 19.5759 31.5863C19.8368 31.9554 19.983 32.3961 19.9955 32.8511Z" fill="#888888"/>
<path fill-rule="evenodd" clip-rule="evenodd" d="M22.1553 30.1382V39L23.334 38.974V35.8532C23.5412 36.1025 23.8034 36.3086 24.1033 36.4578C24.4303 36.6135 24.7941 36.6917 25.1621 36.6854C25.7076 36.6848 26.2415 36.5404 26.7008 36.2693C27.196 35.9815 27.5849 35.5621 27.8159 35.0665C28.0775 34.5085 28.2074 33.9057 28.1971 33.298C28.204 32.7211 28.0864 32.1487 27.8512 31.6141C27.6442 31.1317 27.2854 30.7173 26.8207 30.4242C26.3549 30.1394 25.8058 29.992 25.2468 30.0016C24.8455 29.9873 24.447 30.0679 24.0892 30.2357C23.746 30.418 23.4517 30.6691 23.2281 30.9704V30.1382H22.1553ZM23.7646 35.203C23.3571 34.6713 23.1648 34.0248 23.2211 33.376C23.1757 32.7113 23.38 32.0523 23.7999 31.51C24.1094 31.1127 24.6032 30.8721 25.1339 30.8599C25.649 30.8639 26.1323 31.0902 26.4397 31.471C26.845 32.0061 27.037 32.6539 26.9831 33.3045C27.0424 33.9778 26.8453 34.6491 26.4255 35.203C26.0992 35.5811 25.6018 35.7994 25.0774 35.7947C24.5642 35.7943 24.0799 35.576 23.7646 35.203Z" fill="#888888"/>
<path fill-rule="evenodd" clip-rule="evenodd" d="M29.2048 28V29.2706H30.2119V28H29.2048ZM29.2048 30.4816V37H30.2119V30.4816H29.2048Z" fill="#888888"/>
<path d="M32.226 37V30.1492H33.1691V31.1229C33.6013 30.3854 34.3562 29.9586 35.1498 30.0032C35.5037 29.9983 35.8548 30.074 36.181 30.2257C36.46 30.345 36.7037 30.5472 36.8853 30.81C37.0469 31.0668 37.1583 31.3582 37.2122 31.6654C37.2553 32.0367 37.27 32.4113 37.2563 32.7852V37H36.2062V32.8269C36.222 32.4673 36.1816 32.1073 36.0867 31.7628C36.004 31.5261 35.851 31.3274 35.6528 31.1995C35.4319 31.0566 35.1794 30.9844 34.9235 30.9908C34.4979 30.9831 34.0852 31.1518 33.7665 31.4637C33.3779 31.9569 33.1952 32.6084 33.2635 33.2582V37H32.226Z" fill="#888888"/>
<path fill-rule="evenodd" clip-rule="evenodd" d="M39.6243 37.1155L38.5047 36.9619C38.4424 37.5524 38.7143 38.1307 39.2235 38.491C39.8044 38.8508 40.495 39.0281 41.1932 38.9964C41.7925 39.0139 42.3869 38.8906 42.9209 38.6381C43.3651 38.4269 43.7255 38.091 43.9507 37.6785C44.223 37.0111 44.3431 36.2988 44.3032 35.5864V30.1355H43.2112V30.9033C42.7421 30.3249 42.002 29.9895 41.2208 30.0012C40.6637 29.9854 40.1144 30.1259 39.6451 30.4043C39.1862 30.6947 38.8304 31.1043 38.6222 31.5814C38.3834 32.1078 38.2634 32.6739 38.2698 33.2448C38.2459 34.0538 38.5161 34.8468 39.0369 35.4968C39.55 36.1242 40.3649 36.4763 41.2139 36.4373C41.9466 36.4461 42.6427 36.1416 43.1006 35.612C43.1226 36.0698 43.0948 36.5285 43.0177 36.9811C42.9331 37.3134 42.7252 37.6078 42.4302 37.8128C42.0616 38.029 41.6287 38.132 41.1932 38.1071C40.7774 38.1295 40.3651 38.0262 40.0183 37.8128C39.788 37.6411 39.6453 37.3885 39.6243 37.1155ZM39.9975 35.0107C39.5948 34.4843 39.4063 33.8429 39.4654 33.2002C39.4066 32.5744 39.5984 31.9505 40.0044 31.4472C40.321 31.0787 40.8021 30.8643 41.3107 30.865C41.8285 30.8646 42.3188 31.0809 42.6445 31.4536C43.0538 31.9534 43.2505 32.5749 43.1974 33.2002C43.2653 33.8436 43.0759 34.4878 42.6652 35.0107C42.3317 35.3715 41.8444 35.5793 41.3314 35.5793C40.8184 35.5793 40.331 35.3715 39.9975 35.0107Z" fill="#888888"/>
<path fill-rule="evenodd" clip-rule="evenodd" d="M51.6425 28L48.3389 37H49.5477L50.4906 34.2735H54.0917L55.0979 37H56.3953L52.8702 28H51.6425ZM53.7307 33.3073H50.8195L51.7498 30.6669C51.9464 30.1068 52.1008 29.5315 52.2118 28.9463C52.3595 29.4316 52.5705 30.0536 52.8447 30.8125L53.7307 33.3073Z" fill="#888888"/>
<path d="M57.4023 36.9655V30.1631H58.4153V31.1162C58.8588 30.4116 59.6318 29.9928 60.4549 30.0112C60.8816 29.9928 61.3045 30.1007 61.6719 30.322C61.99 30.5274 62.2298 30.8367 62.3517 31.199C62.7803 30.4671 63.553 30.0145 64.3913 30.0043C64.9555 29.9673 65.5095 30.1699 65.921 30.5637C66.3154 31.0457 66.5082 31.6655 66.4581 32.2902V36.9586H65.3295V32.6838C65.3457 32.3485 65.3089 32.0128 65.2207 31.6893C65.1454 31.4845 65.004 31.3117 64.8196 31.199C64.6151 31.0724 64.3792 31.0077 64.1398 31.0126C63.6995 30.9984 63.2734 31.1711 62.9636 31.4891C62.6125 31.9136 62.4435 32.4633 62.4945 33.0153V36.9655H61.3591V32.5457C61.3867 32.1411 61.2892 31.738 61.0804 31.3924C60.8586 31.118 60.5174 30.9731 60.1694 31.0057C59.8569 31.0042 59.5504 31.0928 59.2856 31.2612C59.0113 31.435 58.8029 31.6978 58.6941 32.007C58.5579 32.482 58.5049 32.9775 58.5377 33.4711V37L57.4023 36.9655Z" fill="#888888"/>
<path fill-rule="evenodd" clip-rule="evenodd" d="M73.4749 34.8283L72.3231 34.6855C72.2044 35.0998 71.9681 35.4689 71.644 35.746C71.3401 35.969 70.9727 36.0837 70.5987 36.0723C70.0808 36.0859 69.5818 35.8732 69.2272 35.4877C68.8293 35.0176 68.6117 34.4163 68.6146 33.795H73.5082V33.4891C73.5666 32.5528 73.2684 31.6297 72.6759 30.9127C72.1224 30.3051 71.3377 29.9727 70.5254 30.0018C69.6969 29.9731 68.8965 30.3099 68.3283 30.9263C67.7168 31.6652 67.4133 32.6195 67.4828 33.5843C67.4287 34.5099 67.7323 35.4203 68.3283 36.1199C69.4817 37.1675 71.1805 37.293 72.4695 36.4258C72.9729 36.0257 73.3276 35.4621 73.4749 34.8283ZM72.323 32.8502H68.6745C68.6749 32.3195 68.8779 31.8098 69.2404 31.4294C69.5811 31.0836 70.0451 30.8946 70.5254 30.906C71.0642 30.8974 71.5753 31.1495 71.9036 31.5858C72.1643 31.9548 72.3105 32.3954 72.323 32.8502Z" fill="#888888"/>
<path d="M74.5225 36.9931V30.1528H75.6519V31.1875C75.8401 30.8189 76.1123 30.492 76.45 30.2292C76.6866 30.0783 76.9679 29.9983 77.2556 30C77.717 30.0103 78.1658 30.1402 78.5507 30.375L78.114 31.4514C77.8377 31.2934 77.5204 31.207 77.1954 31.2014C76.9235 31.1967 76.6579 31.2775 76.4425 31.4306C76.2183 31.5904 76.0549 31.8117 75.9756 32.0625C75.8312 32.5014 75.7601 32.958 75.7648 33.4167V37L74.5225 36.9931Z" fill="#888888"/>
<path fill-rule="evenodd" clip-rule="evenodd" d="M79.5577 28V29.2706H80.5648V28H79.5577ZM79.5577 30.4816V37H80.5648V30.4816H79.5577Z" fill="#888888"/>
<path d="M86.4608 34.377L87.6141 34.5192C87.5272 35.2128 87.1825 35.8526 86.6437 36.3204C86.1164 36.7684 85.4339 37.0099 84.7308 36.9975C83.8705 37.0321 83.0368 36.7061 82.4452 36.1037C81.8251 35.3871 81.5154 34.468 81.5802 33.5374C81.5659 32.8894 81.6928 32.2458 81.953 31.6482C82.1732 31.1233 82.5726 30.6862 83.0852 30.409C83.5905 30.1387 84.1598 29.9988 84.7378 30.0027C85.4016 29.9744 86.0552 30.1682 86.5874 30.5512C87.0839 30.9457 87.4119 31.5026 87.5086 32.1154L86.3694 32.2847C86.2951 31.8973 86.0928 31.5434 85.7927 31.2757C85.5137 31.0496 85.1587 30.9292 84.7941 30.9372C84.2547 30.9297 83.7396 31.1529 83.3876 31.5466C82.9696 32.1082 82.7727 32.7946 82.832 33.4832C82.7717 34.1731 82.9605 34.8619 83.3665 35.4333C83.7115 35.8359 84.2313 36.0611 84.773 36.0427C85.1975 36.0557 85.6107 35.9101 85.9263 35.6365C86.2495 35.2883 86.4383 34.8435 86.4608 34.377Z" fill="#888888"/>
<path fill-rule="evenodd" clip-rule="evenodd" d="M91.1006 36.7774C91.5386 36.5885 91.9415 36.325 92.2916 35.9983C92.308 36.2883 92.376 36.5729 92.4923 36.8384H93.6566C93.5187 36.59 93.4237 36.3196 93.3756 36.0389C93.3098 35.3749 93.2852 34.7073 93.302 34.0401V32.5292C93.3124 32.1805 93.2945 31.8315 93.2484 31.4858C93.1959 31.2036 93.0765 30.9385 92.9005 30.7134C92.6897 30.4787 92.4222 30.3036 92.1243 30.2052C91.6825 30.0563 91.2181 29.9875 90.7527 30.0019C90.2538 29.9871 89.756 30.0581 89.2806 30.212C88.8965 30.3399 88.5556 30.5747 88.2971 30.8895C88.0485 31.2276 87.8813 31.6196 87.8086 32.0346L88.9059 32.204C88.9739 31.8196 89.1699 31.4705 89.4613 31.2147C89.8125 31.0045 90.2186 30.9076 90.6255 30.9369C91.0817 30.9036 91.5341 31.0411 91.8968 31.3232C92.1351 31.5876 92.2497 31.943 92.2113 32.2988V32.5969C91.5568 32.7954 90.8844 32.9271 90.204 32.9899C89.8707 33.0254 89.54 33.082 89.2137 33.1593C88.9278 33.2383 88.6566 33.3642 88.4108 33.532C88.167 33.7066 87.9694 33.9393 87.8354 34.2095C87.6876 34.4837 87.6116 34.7916 87.6146 35.1039C87.6049 35.6198 87.8174 36.1144 88.1967 36.459C88.6674 36.8452 89.2651 37.0364 89.8695 36.9943C90.2894 36.9983 90.7066 36.9248 91.1006 36.7774ZM90.3713 33.8978C90.9944 33.827 91.6073 33.6838 92.198 33.4709L92.1913 33.891C92.2114 34.2769 92.1498 34.6627 92.0106 35.0226C91.8518 35.3538 91.5944 35.6263 91.2746 35.8017C90.9221 35.9967 90.5253 36.0948 90.1238 36.0863C89.7679 36.1113 89.4154 36.0028 89.1335 35.7814C88.7658 35.4545 88.689 34.9046 88.9528 34.4873C89.0611 34.3238 89.2148 34.1965 89.3944 34.1214C89.7103 34.0083 90.0382 33.9333 90.3713 33.8978Z" fill="#888888"/>
<path d="M98.6919 37V28H99.8811V31.6662H104.552V28H105.741V37H104.552V32.7581H99.8811V37H98.6919Z" fill="#888888"/>
<path fill-rule="evenodd" clip-rule="evenodd" d="M112.732 34.833L111.587 34.6901C111.474 35.1 111.246 35.4667 110.932 35.7447C110.63 35.9679 110.265 36.0827 109.893 36.0713C109.378 36.0849 108.882 35.872 108.529 35.4862C108.134 35.0157 107.917 34.4138 107.92 33.792H112.785V33.4858C112.837 32.5482 112.533 31.6264 111.938 30.9139C111.387 30.3057 110.607 29.9731 109.8 30.0022C108.972 29.9695 108.17 30.307 107.603 30.9275C107.001 31.6574 106.697 32.5987 106.755 33.5538C106.702 34.4803 107.003 35.3915 107.596 36.0917C108.738 37.1613 110.44 37.3012 111.733 36.4319C112.233 36.0314 112.586 35.4673 112.732 34.833ZM111.6 32.8529H107.96H107.953C107.959 32.3188 108.168 31.8083 108.536 31.4309C108.874 31.0848 109.336 30.8956 109.813 30.907C110.349 30.8984 110.857 31.1507 111.183 31.5874C111.443 31.9565 111.588 32.3976 111.6 32.8529Z" fill="#888888"/>
<path fill-rule="evenodd" clip-rule="evenodd" d="M117.269 36.7783C117.707 36.5908 118.111 36.3282 118.461 36.0021C118.487 36.2831 118.561 36.5572 118.681 36.812H119.84C119.703 36.5646 119.608 36.2953 119.56 36.0156C119.495 35.3541 119.47 34.6891 119.487 34.0245V32.5194C119.497 32.172 119.48 31.8244 119.434 31.48C119.381 31.1989 119.263 30.9349 119.087 30.7106C118.877 30.4768 118.611 30.3023 118.315 30.2044C117.875 30.056 117.412 29.9875 116.949 30.0019C116.442 29.9927 115.937 30.0726 115.457 30.2381C115.074 30.3655 114.735 30.5994 114.478 30.913C114.23 31.2498 114.064 31.6403 113.991 32.0537L115.084 32.2224C115.151 31.8396 115.347 31.4918 115.637 31.237C115.986 31.0276 116.391 30.931 116.796 30.9603C117.25 30.9271 117.7 31.064 118.061 31.345C118.299 31.6084 118.413 31.9624 118.375 32.3169V32.6139C117.723 32.8116 117.053 32.9428 116.376 33.0054C116.044 33.0407 115.715 33.0971 115.39 33.1741C115.105 33.2528 114.835 33.3782 114.591 33.5453C114.348 33.7193 114.151 33.9511 114.018 34.2203C113.871 34.4934 113.795 34.8001 113.798 35.1112C113.788 35.6251 114 36.1178 114.378 36.4611C114.846 36.8458 115.441 37.0363 116.043 36.9943C116.461 36.9983 116.876 36.9251 117.269 36.7783ZM116.549 33.9098C117.17 33.8393 117.78 33.6966 118.368 33.4846L118.348 33.8963C118.368 34.2807 118.307 34.665 118.168 35.0235C118.014 35.3539 117.763 35.6276 117.449 35.8064C117.098 36.0006 116.703 36.0983 116.303 36.0899C115.949 36.1148 115.598 36.0067 115.317 35.7861C114.951 35.4605 114.874 34.9127 115.137 34.497C115.245 34.3342 115.398 34.2074 115.577 34.1326C115.891 34.0199 116.218 33.9451 116.549 33.9098Z" fill="#888888"/>
<path d="M121.854 37V28H122.861V37H121.854Z" fill="#888888"/>
<path d="M126.739 35.9056L126.889 36.8972C126.63 36.9594 126.364 36.9931 126.098 36.9977C125.789 37.0139 125.482 36.9447 125.206 36.7967C125.009 36.6843 124.852 36.5052 124.76 36.2875C124.648 35.8516 124.606 35.3986 124.635 34.9476V31.1757H123.868V30.3047H124.635V28.67L125.677 28V30.3047H126.732V31.1757H125.677V35.0347C125.665 35.242 125.684 35.4502 125.734 35.651C125.771 35.7437 125.835 35.8212 125.916 35.8721C126.027 35.9321 126.15 35.9599 126.274 35.9525C126.43 35.9485 126.585 35.9328 126.739 35.9056Z" fill="#888888"/>
<path d="M127.896 37V28H128.936V31.2294C129.395 30.6401 130.085 30.3101 130.804 30.336C131.215 30.3258 131.621 30.4236 131.988 30.6206C132.305 30.7892 132.559 31.0666 132.71 31.4081C132.876 31.8746 132.95 32.3724 132.928 32.8706V37H131.888V32.8706C131.924 32.4383 131.804 32.0076 131.552 31.6662C131.298 31.4004 130.948 31.263 130.593 31.289C130.286 31.287 129.985 31.374 129.721 31.5404C129.466 31.6894 129.263 31.9214 129.142 32.2022C129.011 32.5879 128.952 32.9969 128.968 33.4066V36.9735L127.896 37Z" fill="#888888"/>
<path d="M134.494 38.8758L134.367 37.8549C134.585 37.9167 134.81 37.9495 135.036 37.9525C135.242 37.9607 135.447 37.9182 135.632 37.8289C135.782 37.7482 135.909 37.6318 136 37.4908C136.136 37.2314 136.25 36.9618 136.341 36.6845L136.442 36.4179L133.939 30H135.143L136.515 33.7129C136.694 34.1811 136.852 34.6752 136.99 35.1954C137.118 34.7024 137.272 34.2163 137.452 33.7389L138.864 30.0065H139.981L137.472 36.5089C137.293 37.0065 137.083 37.4929 136.843 37.9655C136.688 38.2762 136.459 38.5461 136.174 38.7523C135.901 38.9223 135.581 39.0084 135.257 38.9993C134.997 39.0014 134.739 38.9596 134.494 38.8758Z" fill="#888888"/>
<path d="M0 24L2.06216 1.01976H8.07949L13.3943 18.3488L19.7889 1H26.1835V23.9473L21.9031 24L22.2284 5.13631L15.0206 24H10.636L5.26273 4.93872L4.06577 24H0Z" fill="#026666"/>
<path fill-rule="evenodd" clip-rule="evenodd" d="M43.3689 22.5395L43.6265 19.6704C42.5828 20.7349 39.5773 20.9297 37.0012 20.8777C35.7201 20.8699 34.5092 20.3011 33.6984 19.3264C33.0115 18.5669 32.4962 17.3595 32.6217 14.8929H45.3175C45.3307 12.238 44.8749 10.0375 43.4349 8.34331C41.9949 6.64912 39.9406 6 37.2984 6C34.9403 6 32.9454 6.57122 31.3205 8.21349C29.4628 9.983 28.3499 12.3741 28.2027 14.9124C28.1337 17.107 28.7921 19.2643 30.0786 21.0595C31.4592 23.0523 34.4316 24 37.8467 24C39.8019 24 41.8298 23.8377 43.3689 22.5395ZM40.5152 10.0958C41.0992 10.8946 41.3648 11.8762 41.2616 12.8546L32.7471 12.9065C32.7918 11.8606 33.2463 10.8721 34.0154 10.1478C34.8569 9.39373 35.9616 8.98696 37.1002 9.01182C38.811 9.01182 39.8546 9.40129 40.5152 10.0958Z" fill="#086666"/>
<path fill-rule="evenodd" clip-rule="evenodd" d="M59.5864 24.3699H63.5479L64.4518 1.04019L60.2274 1L60.0671 7.19581C58.722 6.79965 57.3441 6.53725 55.9517 6.41212C52.6953 6.46571 50.6248 7.55081 49.1696 9.14498C47.3946 11.0788 46.3808 13.6397 46.3298 16.3187C46.2569 18.5584 46.9628 20.75 48.317 22.4877C49.5703 24.0985 51.4587 25.0234 53.4453 24.9995C54.4155 24.9857 55.368 24.726 56.221 24.2427C57.5352 23.5282 58.7128 22.5679 59.6953 21.4093L59.5864 24.3699ZM51.362 20.1837C50.7438 18.8477 50.4846 17.3614 50.6119 15.8834C50.7068 14.2369 51.2842 12.6608 52.2658 11.3689C53.0722 10.4696 54.1447 9.87977 55.3107 9.69434C56.7714 9.50485 58.2525 9.57963 59.6889 9.91538C59.9993 18.1333 58.8911 19.4486 58.1105 20.3751C58.085 20.4054 58.0598 20.4353 58.0351 20.465C57.253 21.4027 55.6697 21.8046 54.6184 21.8046C53.285 21.8046 51.8427 21.0745 51.362 20.1837Z" fill="#086666"/>
<path fill-rule="evenodd" clip-rule="evenodd" d="M68.065 0L68.227 3.04163H72.3275L72.5083 0H68.065ZM68.0401 6.69551L67.473 24H71.9163L72.4834 6.69551H68.0401Z" fill="#086666"/>
<path d="M87.6142 7.19065L87.5611 10.2058C87.4549 9.30193 83.6914 8.80477 82.3042 9.07595C81.1096 9.33726 80.0612 10.0294 79.3705 11.0129C78.3218 12.3042 78.043 14.7189 78.043 14.7448C77.8704 16.2328 78.1447 17.7376 78.8329 19.0771C79.4082 20.1376 80.4678 20.8687 81.6869 21.0463C82.5365 21.1819 85.6694 21.5693 86.9969 20.3167L86.831 23.1705C85.2556 23.7945 83.558 24.0723 81.8595 23.984C79.2444 23.984 77.2133 23.3384 75.773 21.7436C74.1359 19.8708 73.3354 17.4396 73.5495 14.9901C73.7021 12.117 74.5584 10.0251 76.2044 8.42384C79.3601 5.72679 83.9107 5.2318 87.6009 7.18419L87.6142 7.19065Z" fill="#086666"/>
<path d="M105.739 10.7137C105.806 8.63108 104.228 5.70126 98.3925 6.02464C96.042 6.15399 92.6171 6.59379 91.1062 7.72562V9.71764C92.8388 8.7475 93.9602 8.26243 97.7679 8.2883C102.509 8.32064 100.958 11.5221 100.958 11.5221C100.078 12.2077 97.6538 13.0032 96.5524 13.2231C94.9585 13.5444 93.3985 14.0055 91.8919 14.6007C89.2057 15.7843 88.608 17.6469 88.6214 19.128C88.6458 20.4591 89.2212 21.7257 90.2197 22.6464C91.7307 24.2762 94.1483 23.9787 96.0152 23.9787C98.5738 23.9787 98.6611 22.4006 98.829 21.1912C97.8888 21.3998 96.9354 21.5489 95.9749 21.6374C95.1741 21.7627 94.358 21.5272 93.7606 20.9985C93.1632 20.4699 92.8507 19.7066 92.9126 18.9275C92.9912 18.2165 93.3348 17.557 93.8797 17.0713C94.6474 16.5079 95.5386 16.1208 96.4853 15.9395C98.0484 15.4898 99.5711 14.9188 101.038 14.232C101.038 14.232 100.461 23.1703 100.521 23.4096H105.262C105.195 21.7927 105.195 18.436 105.262 16.1723C105.33 13.9087 105.739 10.7137 105.739 10.7137Z" fill="#086666"/>
<path fill-rule="evenodd" clip-rule="evenodd" d="M109.354 0L109.516 3.04163H113.58L113.798 0H109.354ZM109.33 6.69551L108.762 24H113.206L113.773 6.69551H109.33Z" fill="#086666"/>
<path fill-rule="evenodd" clip-rule="evenodd" d="M128.076 24.3699H132.03L132.932 1.04019L128.716 1L128.556 7.17571C127.222 6.74223 125.843 6.47909 124.449 6.39203C121.922 6.23764 119.455 7.23395 117.681 9.12488C115.959 11.1 114.956 13.6467 114.847 16.3187C114.615 18.5797 115.34 20.8339 116.83 22.4877C118.081 24.0985 119.966 25.0234 121.948 24.9995C122.916 24.9857 123.867 24.726 124.718 24.2427C126.029 23.5282 127.205 22.5679 128.185 21.4093L128.076 24.3699ZM119.869 20.1903C119.252 18.8543 118.994 17.368 119.121 15.89C119.215 14.2435 119.792 12.6674 120.771 11.3755C121.576 10.4762 122.646 9.88636 123.81 9.70093C125.267 9.51145 126.745 9.58622 128.179 9.92197C128.489 18.1398 127.383 19.4552 126.604 20.3817C126.578 20.412 126.553 20.4419 126.529 20.4716C125.748 21.4093 124.168 21.8112 123.119 21.8112C121.788 21.8112 120.349 21.0811 119.869 20.1903Z" fill="#086666"/>
<path d="M135.953 23L135.987 19H139.981L139.947 23H135.953Z" fill="#888888"/>
<path fill-rule="evenodd" clip-rule="evenodd" d="M159.901 26.6043L160.022 23.3657L160.122 6.9717C157.466 6.48927 154.782 6.16479 152.084 6.00011C148.795 5.98716 146.518 7.10125 144.997 8.64284C143.197 10.5494 142.147 13.0071 142.03 15.5865C141.876 18.4818 142.211 20.2372 143.604 21.8565C144.997 23.4758 147.389 23.981 149.465 23.981C150.479 23.9677 151.474 23.7165 152.366 23.2491C153.739 22.5582 154.969 21.6296 155.996 20.5092L155.882 25.6392C155.882 25.6392 154.985 28.9815 150.41 28.7677C148.143 28.6421 145.897 28.2794 143.711 27.686L144.16 30.8145C146.628 31.5165 149.178 31.9148 151.749 31.9999C160.015 31.9999 159.901 26.6043 159.901 26.6043ZM147.288 19.3173C146.642 18.0254 146.371 16.5881 146.504 15.1589C146.603 13.5667 147.207 12.0425 148.233 10.7932C149.075 9.92354 150.196 9.3532 151.414 9.17389C152.941 8.99065 154.488 9.06295 155.989 9.38764C156.314 17.3345 155.156 18.6065 154.34 19.5025C154.313 19.5318 154.287 19.5607 154.261 19.5894C153.444 20.4962 151.789 20.8848 150.691 20.8848C149.298 20.8848 147.79 20.1788 147.288 19.3173Z" fill="#888888"/>
<path fill-rule="evenodd" clip-rule="evenodd" d="M163.643 10.2998C162.817 11.6136 162.308 13.1067 162.159 14.6574C162.033 16.4016 162.444 18.1422 163.335 19.6402C164.089 20.9642 165.205 22.0388 166.548 22.7342C167.944 23.5052 169.497 23.9377 171.086 23.9978C173.497 24.0508 175.832 23.1434 177.59 21.4705C179.384 19.764 180.013 17.4778 180.238 14.8723C180.422 12.5265 179.602 10.2138 177.989 8.52165C176.498 6.84115 174.293 6.00091 171.722 6.00091C170.122 5.97903 168.54 6.35237 167.114 7.08867C165.688 7.81624 164.488 8.92714 163.643 10.2998ZM167.435 19.3927C166.581 18.1041 166.153 16.5734 166.214 15.0221C166.324 13.2183 167.018 11.5015 168.187 10.137C169.149 9.27178 170.398 8.80652 171.684 8.83429C173.087 8.75399 174.435 9.40474 175.257 10.5604C175.964 11.4788 176.26 13.0029 176.298 14.4685C176.414 16.0885 175.973 17.6991 175.051 19.0279C174.1 20.3309 172.568 21.0645 170.97 20.982C169.6 21.1073 168.263 20.5063 167.435 19.3927Z" fill="#888888"/>
<path d="M187.793 23.9737L181.271 7H186.06L190.114 19.8682C190.401 19.1325 194.967 7 194.967 7H199.398L191.776 24L187.793 23.9737Z" fill="#888888"/>
</svg>
